# xmcd
#
# Track frame offsets:
#	150
#	13610
#	27181
#	39290
#	50980
#	66916
#	77329
#	89828
#	102786
#	116205
#	130746
#	143953
#
# Disc length: 2059 seconds
#
# Revision: 0
# Processed by: cddbd v1.5.2PL0 Copyright (c) Steve Scherf et al.
# Submitted via: EZCDAudioConverter 1.0.4.1
#
DISCID=a208090c
DTITLE=Country Express
DYEAR=1976
DGENRE=Country
TTITLE0=Daddy Frank
TTITLE1=Ride me down easy
TTITLE2=Streets of Baltimore
TTITLE3=North to Chicago
TTITLE4=Jealous heart
TTITLE5=Is anybody goin' to San Antone
TTITLE6=My old love
TTITLE7=Help me make it through the night
TTITLE8=Branded man
TTITLE9=If you' ve got a restless mind
TTITLE10=Good time Charlies got the blues
TTITLE11=The charm of country music
EXTD=
EXTT0=
EXTT1=
EXTT2=
EXTT3=
EXTT4=
EXTT5=
EXTT6=
EXTT7=
EXTT8=
EXTT9=
EXTT10=
EXTT11=
PLAYORDER=
